<svg version="1.1" id="Layer_1" xmlns="http://www.w3.org/2000/svg" xmlns:xlink="http://www.w3.org/1999/xlink" x="0px" y="0px"
	 width="100%" viewBox="0 0 1024 1024" enable-background="new 0 0 1024 1024" xml:space="preserve">
<path fill="#000000" opacity="1.000000" stroke="none" 
	d="
M329.752258,504.879578 
	C358.635345,444.617493 402.355713,398.166748 457.505737,361.795990 
	C506.453369,329.515625 559.158691,305.618591 615.554504,289.801178 
	C647.219238,280.920105 679.419617,274.910706 712.262207,272.518707 
	C717.487793,272.138123 722.677551,271.159454 728.320862,271.966156 
	C727.241943,274.237671 725.507324,274.059082 723.947021,274.244659 
	C684.474304,278.939880 645.931519,287.721191 608.306335,300.544037 
	C564.509338,315.470215 523.638000,336.252991 485.597900,362.510559 
	C452.321198,385.480133 422.559052,412.150146 399.912567,446.100525 
	C384.289948,469.521118 372.404724,494.780029 362.557617,521.054688 
	C346.362488,564.267395 333.585388,608.582520 320.279419,652.724915 
	C315.860626,667.384155 311.563416,682.080139 307.244934,696.769409 
	C306.507385,699.278198 305.789001,701.407043 302.416565,701.385681 
	C285.588654,701.279419 268.759735,701.333191 251.931290,701.291138 
	C251.158417,701.289246 250.386505,700.906555 249.741028,700.734985 
	C249.070374,698.928284 249.777451,697.559021 250.329147,696.182556 
	C272.197662,641.623596 292.977173,586.622559 316.493866,532.733215 
	C320.554749,523.427490 325.208313,514.380371 329.752258,504.879578 
z"/>
<path fill="#000000" opacity="1.000000" stroke="none" 
	d="
M665.943298,559.076904 
	C701.485352,602.230103 730.833252,648.694824 751.868103,700.063354 
	C749.562378,701.788635 747.837097,701.360046 746.217957,701.362915 
	C731.220337,701.389587 716.217957,701.155884 701.227661,701.484802 
	C696.346680,701.591919 694.137817,699.749023 692.476562,695.430603 
	C677.215881,655.760132 657.133728,618.604797 633.477844,583.346313 
	C617.034241,558.837646 598.922852,535.567871 580.650635,512.417725 
	C567.122620,495.278229 553.855713,477.957458 543.357849,458.703705 
	C535.042358,443.452698 528.950256,427.474792 528.829651,409.899628 
	C528.682556,388.477539 536.695923,369.973572 550.501526,353.848999 
	C566.696899,334.933411 586.741699,321.060333 608.756409,309.868195 
	C643.336121,292.288116 680.116516,282.360565 718.655884,278.724243 
	C721.677307,278.439178 724.746582,276.995972 728.397644,278.745850 
	C725.804016,280.950500 722.975464,280.808075 720.391113,281.282288 
	C677.011414,289.242249 635.971191,303.210632 599.499634,328.713135 
	C586.871155,337.543518 575.545166,347.810120 566.702637,360.603729 
	C549.895203,384.921265 549.985657,409.874939 563.499817,435.525330 
	C572.837341,453.248352 585.703857,468.329773 598.851868,483.169312 
	C621.167603,508.356171 644.425598,532.708984 665.943298,559.076904 
z"/>
<path fill="#000000" opacity="1.000000" stroke="none" 
	d="
M350.012390,701.361145 
	C345.424988,701.178284 341.268494,701.814575 336.510742,700.648254 
	C337.836273,695.431763 339.067963,690.651489 340.263763,685.862244 
	C341.876282,679.404114 343.607910,672.970459 344.999786,666.464539 
	C345.766327,662.881409 347.509399,661.223999 351.195557,661.694702 
	C352.179352,661.820251 353.192902,661.712402 354.192810,661.712341 
	C449.350159,661.707214 544.507629,661.766052 639.664490,661.546936 
	C645.710083,661.533081 648.649841,663.537842 650.690186,668.950195 
	C653.917725,677.512085 657.788391,685.830811 661.351013,694.267639 
	C662.174683,696.218201 663.317749,698.127197 662.716003,701.360962 
	C558.652954,701.360962 454.581543,701.360962 350.012390,701.361145 
z"/>
<path fill="#000000" opacity="1.000000" stroke="none" 
	d="
M521.000000,579.989258 
	C546.660706,579.974426 571.821960,580.035522 596.981689,579.872192 
	C601.104248,579.845459 603.695740,581.047729 605.840271,584.729675 
	C612.209778,595.665771 618.973206,606.372253 625.557373,617.183838 
	C626.479614,618.698181 627.731750,620.124451 627.590149,622.045959 
	C625.750305,623.746460 623.651428,623.142883 621.746521,623.143799 
	C535.433411,623.185608 449.120270,623.191040 362.807129,623.192078 
	C356.975616,623.192139 356.523407,622.683472 357.933960,617.256287 
	C360.822571,606.142273 363.936005,595.084595 366.666321,583.932617 
	C367.596161,580.134766 370.065979,579.940552 373.034149,579.942078 
	C388.530518,579.949951 404.026886,579.936584 419.523254,579.942261 
	C453.182159,579.954529 486.841095,579.973816 521.000000,579.989258 
z"/>
<path fill="#000000" opacity="1.000000" stroke="none" 
	d="
M205.640472,227.871170 
	C215.364944,202.894104 237.424774,187.727753 263.756287,187.703751 
	C297.899536,187.672623 332.042847,187.674057 366.186066,187.718842 
	C373.177002,187.728012 378.257324,191.349976 379.904846,197.163589 
	C381.520020,202.863083 379.407837,208.576523 374.465912,212.118591 
	C371.721924,214.085312 368.632507,214.283554 365.419434,214.280853 
	C335.440002,214.255676 305.460541,214.256516 275.481110,214.272308 
	C246.526550,214.287552 228.179291,232.760864 228.184631,261.842987 
	C228.189484,288.324768 228.223801,314.806702 228.147919,341.288269 
	C228.125946,348.948273 222.338577,354.899445 215.153137,355.046051 
	C207.921112,355.193634 202.126968,349.424225 201.780746,341.695923 
	C201.713730,340.199829 201.761520,338.698456 201.761307,337.199524 
	C201.757065,308.385956 201.808823,279.572235 201.713348,250.758987 
	C201.687622,242.998215 203.002151,235.539139 205.640472,227.871170 
z"/>
<path fill="#000000" opacity="1.000000" stroke="none" 
	d="
M233.775238,740.186646 
	C242.866074,755.745667 256.462341,762.649170 273.784485,762.687500 
	C304.268677,762.754883 334.753052,762.703552 365.237366,762.715088 
	C374.826324,762.718689 380.381287,767.637756 380.345917,776.038269 
	C380.312408,783.992920 374.528687,789.199890 365.401428,789.210571 
	C330.752686,789.251160 296.103027,789.366455 261.455292,789.172119 
	C230.008057,788.995728 202.361633,762.088745 201.883118,730.697998 
	C201.403305,699.221436 201.711060,667.731995 201.776276,636.248474 
	C201.794006,627.693604 207.511078,621.830261 215.228516,621.995728 
	C222.677795,622.155457 228.132904,628.041626 228.154861,636.338684 
	C228.226288,663.324524 228.225723,690.310669 228.165100,717.296570 
	C228.147125,725.293335 229.862762,732.805908 233.775238,740.186646 
z"/>
<path fill="#000000" opacity="1.000000" stroke="none" 
	d="
M796.637024,306.000000 
	C796.266907,288.186890 797.633667,270.827637 795.900635,253.561752 
	C793.619446,230.834579 775.286072,214.436371 752.298340,214.320099 
	C724.476074,214.179367 696.652466,214.321152 668.829773,214.229126 
	C658.013306,214.193344 651.566956,204.136200 656.336121,194.909073 
	C658.763489,190.212769 662.824036,187.740387 668.069458,187.732620 
	C700.390442,187.684738 732.720825,187.259079 765.030090,187.885559 
	C794.185303,188.450897 819.160828,212.528351 822.346741,241.613083 
	C823.840027,255.245255 822.917419,268.900696 823.043152,282.542786 
	C823.221313,301.867004 823.136963,321.195068 822.993042,340.520233 
	C822.908142,351.925873 812.444275,358.407227 802.995544,353.087311 
	C798.489502,350.550262 796.596130,346.602295 796.626221,341.486664 
	C796.694824,329.824829 796.641907,318.162262 796.637024,306.000000 
z"/>
<path fill="#000000" opacity="1.000000" stroke="none" 
	d="
M818.449951,625.500854 
	C822.044250,629.025879 823.051941,633.137573 823.053833,637.615662 
	C823.066772,667.938660 823.311401,698.263733 823.031006,728.584045 
	C822.720581,762.149963 795.375427,789.113647 761.897156,789.214050 
	C730.908020,789.307007 699.918274,789.221375 668.928833,789.223877 
	C663.492432,789.224304 659.226624,787.179749 656.575867,782.268188 
	C654.050049,777.588074 654.282776,772.983643 657.123718,768.533813 
	C659.896179,764.191406 663.961426,762.643372 669.040771,762.660461 
	C696.031311,762.750977 723.022278,762.714600 750.013123,762.697632 
	C777.655396,762.680298 796.580139,743.836487 796.604370,716.287903 
	C796.627686,689.796936 796.658936,663.305847 796.562073,636.815247 
	C796.541504,631.198120 798.097107,626.648071 803.246399,623.848877 
	C808.515442,620.984497 813.489746,621.612183 818.449951,625.500854 
z"/>
<path fill="#000000" opacity="1.000000" stroke="none" 
	d="
M488.999878,549.386475 
	C451.565491,549.386780 414.631104,549.386780 378.268219,549.386780 
	C377.048553,547.630188 377.373596,546.646362 377.658051,545.703857 
	C380.207428,537.256897 382.871002,528.843018 385.299194,520.361572 
	C386.282471,516.926941 388.124451,515.608032 391.752014,515.653381 
	C405.247528,515.822510 418.746460,515.716492 432.244110,515.716614 
	C472.403778,515.717041 512.563660,515.774536 552.722839,515.636047 
	C556.851685,515.621826 559.482971,516.895813 561.785217,520.315002 
	C566.900757,527.912659 572.441467,535.222656 577.706482,542.721924 
	C578.907288,544.432373 580.562805,545.996338 580.709290,549.386108 
	C550.229919,549.386108 519.864929,549.386108 488.999878,549.386475 
z"/>
<path fill="#000000" opacity="1.000000" stroke="none" 
	d="
M417.128540,465.018982 
	C452.082367,465.025177 486.556274,465.100647 521.029297,464.956421 
	C525.454529,464.937897 527.995972,466.292480 529.929932,470.386047 
	C532.694946,476.238739 536.255188,481.713623 539.420837,487.380615 
	C540.206970,488.787903 541.533936,490.009521 541.191528,492.514648 
	C493.189850,492.514648 445.123138,492.514648 396.887238,492.514648 
	C396.518280,488.521942 398.843262,485.667114 400.099060,482.509430 
	C401.389221,479.265320 403.326904,476.247894 404.354401,472.936768 
	C406.294312,466.685455 410.222687,464.046204 417.128540,465.018982 
z"/>
<path fill="#000000" opacity="1.000000" stroke="none" 
	d="
M431.856995,427.653625 
	C433.512085,425.401062 435.525055,424.918243 437.804108,424.917908 
	C461.768799,424.914368 485.733521,424.890686 509.698212,424.863586 
	C511.965607,424.861023 514.119751,425.005005 514.720581,427.804596 
	C516.068726,434.085938 517.406799,440.369476 518.842346,447.089661 
	C485.835999,447.089661 453.167267,447.089661 419.518402,447.089661 
	C422.418976,439.426575 427.382599,433.904480 431.856995,427.653625 
z"/>
<path fill="#000000" opacity="1.000000" stroke="none" 
	d="
M462.950195,394.232422 
	C479.478973,394.045074 495.602081,393.978668 511.724884,393.871796 
	C514.844482,393.851135 516.558472,394.765930 515.472839,398.316406 
	C514.942078,400.052063 514.471558,401.889801 514.456421,403.685425 
	C514.378845,412.880463 512.805603,411.323090 505.491760,411.362427 
	C487.537048,411.459015 469.581573,411.425690 451.626404,411.430511 
	C450.007660,411.430939 448.318878,411.692535 446.221039,410.249939 
	C451.449860,404.481384 456.455566,398.887451 462.950195,394.232422 
z"/>
</svg>